<svg viewBox="0 0 80 80" xmlns="http://www.w3.org/2000/svg"><g data-name="레이어 2"><g data-name="레이어 1"><circle cx="45.55" cy="26.03" r="1.03" fill="#f7f8f9" class="fill-000000"></circle><path d="M40 0a40 40 0 1 0 40 40A40 40 0 0 0 40 0Zm-6 21.89-1.89-3.41a.48.48 0 0 1 .84-.46l1.91 3.44a12.25 12.25 0 0 1 10.27 0L47 18a.48.48 0 0 1 .84.46L46 21.89a12.24 12.24 0 0 1 6 8.13.91.91 0 0 1-.89 1.1h-22.2A.91.91 0 0 1 28 30a12.24 12.24 0 0 1 6-8.11ZM26.67 46a2.68 2.68 0 1 1-5.36 0V35.12a2.68 2.68 0 1 1 5.36 0Zm25.51 6.27a.91.91 0 0 1-.91.91H47.2v6.37a2.68 2.68 0 0 1-5.36 0v-6.37H38.1v6.37a2.68 2.68 0 1 1-5.36 0v-6.37h-4a.91.91 0 0 1-.91-.91V33.36a.91.91 0 0 1 .91-.91h22.54a.91.91 0 0 1 .91.91Zm6.5-6.27a2.68 2.68 0 0 1-5.36 0V35.12a2.68 2.68 0 1 1 5.36 0Z" fill="#f7f8f9" class="fill-000000"></path><circle cx="34.4" cy="26.03" r="1.03" fill="#f7f8f9" class="fill-000000"></circle></g></g></svg>